<svg width="220" height="57" viewBox="0 0 220 57" fill="none" xmlns="http://www.w3.org/2000/svg">
<path fill-rule="evenodd" clip-rule="evenodd" d="M94.8784 22.733H104.549C105.403 22.733 106.091 21.9832 105.986 21.1093C105.898 20.3761 105.249 19.8384 104.511 19.8384H92.4884C91.6924 19.8384 91.0412 20.4896 91.0412 21.2859V35.7584C91.0412 36.5547 91.6924 37.2058 92.4884 37.2058H104.549C105.403 37.2058 106.091 36.4558 105.986 35.5818C105.898 34.8489 105.249 34.3113 104.511 34.3113H94.8784C94.3576 34.3113 93.9356 33.8892 93.9356 33.3684V30.9119C93.9356 30.3914 94.3576 29.9693 94.8784 29.9693H102.137C102.991 29.9693 103.678 29.2195 103.573 28.3458C103.485 27.6124 102.837 27.0747 102.099 27.0747H94.8784C94.3576 27.0747 93.9356 26.6529 93.9356 26.1322V23.6756C93.9356 23.1551 94.3576 22.733 94.8784 22.733ZM78.2376 22.733C79.8538 22.733 81.2046 23.312 82.3142 24.4456C82.5796 24.711 82.9414 24.8558 83.3513 24.8558C84.1473 24.8558 84.7987 24.2044 84.7987 23.4084C84.7987 22.9984 84.6057 22.6124 84.1955 22.2506C82.4829 20.6344 80.481 19.8384 78.2376 19.8384C75.8496 19.8384 73.7993 20.6829 72.0867 22.3954C70.3983 24.0838 69.5542 26.1342 69.5542 28.5221C69.5542 30.9101 70.3983 32.9605 72.0867 34.6731C73.7993 36.3614 75.8496 37.2058 78.2376 37.2058C80.6258 37.2058 82.6759 36.3614 84.3645 34.6731C84.9433 34.094 84.9433 33.1775 84.3645 32.6227C83.8095 32.0439 82.8932 32.0439 82.3142 32.6227C81.1806 33.7565 79.8298 34.3113 78.2376 34.3113C76.6456 34.3113 75.2709 33.7565 74.1371 32.6227C73.0033 31.4891 72.4487 30.1141 72.4487 28.5221C72.4487 26.9302 73.0033 25.5794 74.1371 24.4456C75.2709 23.312 76.6456 22.733 78.2376 22.733ZM125.4 34.3113H115.769C115.248 34.3113 114.825 33.8884 114.825 33.3669V21.3237C114.825 20.5852 114.287 19.9368 113.554 19.849C112.68 19.7443 111.93 20.4318 111.93 21.2859V35.7584C111.93 36.5547 112.581 37.2058 113.378 37.2058H125.438C126.292 37.2058 126.98 36.4558 126.875 35.5818C126.786 34.8489 126.138 34.3113 125.4 34.3113ZM186.299 19.8384H171.865C171.01 19.8384 170.323 20.5885 170.428 21.4622C170.516 22.1954 171.165 22.733 171.903 22.733H176.711C177.232 22.733 177.654 23.1551 177.654 23.6758V35.7584C177.654 36.6127 178.404 37.3002 179.278 37.1952C180.011 37.1069 180.548 36.4585 180.548 35.7201V23.6758C180.548 23.1551 180.971 22.733 181.491 22.733H186.337C187.192 22.733 187.879 21.9832 187.774 21.1093C187.686 20.3761 187.038 19.8384 186.299 19.8384ZM193.947 19.8384C193.151 19.8384 192.5 20.4896 192.5 21.2859V35.7584C192.5 36.5547 193.151 37.2058 193.947 37.2058C194.743 37.2058 195.394 36.5547 195.394 35.7584V21.2859C195.394 20.4896 194.743 19.8384 193.947 19.8384ZM164.989 28.3534C163.662 27.5089 161.877 27.0747 159.634 27.0747C156.667 27.0747 155.172 26.3512 155.172 24.9037C155.172 23.4566 156.667 22.733 159.634 22.733C161.274 22.733 162.842 23.0466 164.338 23.6496C165.206 23.915 165.809 23.6014 166.147 22.7572C166.436 22.0094 166.05 21.2859 165.254 20.9241C163.59 20.2002 161.732 19.8384 159.634 19.8384C157.439 19.8384 155.678 20.2969 154.303 21.1892C152.952 22.0818 152.277 23.336 152.277 24.9037C152.277 26.5684 152.952 27.8468 154.279 28.6909C155.606 29.5351 157.391 29.9693 159.634 29.9693C162.601 29.9693 164.096 30.6929 164.096 32.1403C164.096 33.5874 162.601 34.3113 159.634 34.3113H158.91C157.415 34.3113 155.847 33.9977 154.23 33.3944C153.483 33.1293 152.711 33.4668 152.398 34.2631C152.108 35.0109 152.542 35.879 153.29 36.1444C154.955 36.8438 156.812 37.2058 158.91 37.2058H159.634C161.829 37.2058 163.59 36.7474 164.941 35.8548C166.316 34.9624 166.991 33.708 166.991 32.1403C166.991 30.4759 166.316 29.1975 164.989 28.3534ZM135.423 22.733H145.096C145.95 22.733 146.638 21.9832 146.533 21.1093C146.445 20.3761 145.796 19.8384 145.058 19.8384H133.036C132.239 19.8384 131.588 20.4896 131.588 21.2859V35.7584C131.588 36.5547 132.239 37.2058 133.036 37.2058H145.096C145.95 37.2058 146.638 36.4558 146.533 35.5818C146.444 34.8489 145.796 34.3113 145.058 34.3113H135.423C134.904 34.3113 134.483 33.8902 134.483 33.371V30.9098C134.483 30.3904 134.904 29.9693 135.423 29.9693H142.684C143.538 29.9693 144.225 29.2195 144.121 28.3458C144.032 27.6124 143.384 27.0747 142.646 27.0747H135.423C134.904 27.0747 134.483 26.6539 134.483 26.1344V23.6733C134.483 23.1538 134.904 22.733 135.423 22.733ZM53.7722 28.8178C53.7669 28.9917 53.5302 29.0376 53.4619 28.8774C53.4326 28.8082 53.4026 28.7389 53.372 28.6695C53.3163 28.5426 53.3319 28.395 53.4152 28.284C53.4323 28.2613 53.4674 28.2154 53.5093 28.1606C53.6218 28.0135 53.784 28.0355 53.784 28.1987C53.784 28.4129 53.779 28.5983 53.7722 28.8178ZM52.5269 25.4169C52.3351 25.7623 51.8434 25.7782 51.6305 25.4452C51.5974 25.3937 51.5641 25.3422 51.5306 25.2905C50.7631 24.112 49.8798 22.9553 48.8933 21.8311C48.6511 21.5551 48.8492 21.1219 49.2165 21.1216H49.2254C51.5306 21.1216 52.739 21.691 53.1079 22.3864C53.4157 22.9679 53.3213 23.9849 52.5269 25.4169ZM52.0117 37.472C51.8881 37.7866 51.7586 38.0992 51.6226 38.4088C51.6015 38.4514 51.5815 38.4945 51.5596 38.5369C50.7111 40.17 49.2874 41.456 47.3849 42.3509C46.958 42.5514 46.491 42.1609 46.6182 41.7067C47.2499 39.4457 47.728 36.9937 48.0378 34.423C48.0956 33.9437 48.332 33.5037 48.6973 33.1878C49.4797 32.5109 50.2103 31.835 50.8824 31.1639L50.8897 31.1563C51.2205 30.8263 51.7846 30.9684 51.9193 31.4159C52.5834 33.6233 52.6202 35.6792 52.0117 37.472ZM46.8402 45.6352C46.6467 45.8421 46.4491 46.0465 46.2478 46.2478C45.8971 46.598 45.5381 46.9368 45.1712 47.264C44.9399 47.4701 44.59 47.2123 44.7209 46.9312C44.7582 46.851 44.7953 46.7703 44.8322 46.6888C44.9863 46.349 45.1352 46.0003 45.28 45.6451C45.3143 45.5613 45.3865 45.4987 45.4743 45.4763C45.8391 45.3837 46.1948 45.2815 46.5412 45.1697C46.822 45.0794 47.042 45.4198 46.8402 45.6352ZM43.0424 43.5942C42.2744 43.7054 41.4668 43.7773 40.6219 43.8071C38.5604 43.8793 36.3806 43.7014 34.1415 43.2891C33.8685 43.2389 33.816 42.8698 34.0635 42.7447C34.552 42.4974 35.0407 42.2446 35.5291 41.9858C38.9552 40.1698 42.1521 38.1847 44.9505 36.1495C45.1604 35.9968 45.4495 36.177 45.4069 36.4331C45.0189 38.7655 44.4815 40.9612 43.8066 42.9543C43.6915 43.2939 43.3974 43.5427 43.0424 43.5942ZM42.2504 46.7017C40.4135 50.3145 38.1512 52.3429 35.9582 52.3021C33.5748 52.2597 31.1982 49.7776 29.4382 45.4929L29.4362 45.4881C29.3244 45.2162 29.4529 44.9048 29.7223 44.7878C29.741 44.7794 29.7596 44.7714 29.7783 44.763C29.8939 44.7128 30.0235 44.7037 30.1451 44.7381C33.4373 45.662 36.6811 46.1441 39.7202 46.1441C40.0504 46.1441 40.3784 46.1385 40.7036 46.1272C41.0843 46.1136 41.459 46.0921 41.8271 46.0629C42.1685 46.0359 42.4059 46.3964 42.2504 46.7017ZM31.3726 53.5721C30.2804 53.7124 29.172 53.7843 28.0529 53.7843C23.0514 53.7843 18.2677 52.3669 14.1606 49.7221C13.878 49.54 13.9981 49.1015 14.3339 49.0861C14.4035 49.0828 14.4686 49.0793 14.5259 49.0757C15.5696 49.0079 16.714 48.855 17.9541 48.6161C20.5918 48.1087 23.524 47.2383 26.5941 46.0661C26.8694 45.9612 27.1767 46.0977 27.2887 46.3701C27.2894 46.3719 27.2899 46.3734 27.2907 46.3749C28.4805 49.2718 29.9448 51.4607 31.589 52.8531C31.8607 53.0834 31.7258 53.5267 31.3726 53.5721ZM16.4925 35.5432C18.7599 33.6969 21.4165 31.8547 24.3308 30.1106C24.3934 33.838 24.8021 37.4165 25.5254 40.6489C24.4446 40.1879 23.367 39.6803 22.2988 39.1255C20.2298 38.0503 18.2831 36.8458 16.4925 35.5432ZM9.44118 45.5305C8.90026 44.51 9.59937 42.146 13.1509 38.5531L13.1527 38.5513C13.5235 38.1767 13.488 37.5618 13.074 37.2356C12.9317 37.1238 12.7904 37.0108 12.6501 36.8978C12.2964 36.6119 11.7845 36.6382 11.4633 36.9598C11.3929 37.0302 11.3404 37.0832 11.3251 37.0991C9.54967 38.9214 8.30712 40.6083 7.61104 42.1256C7.41375 42.5555 6.81783 42.6019 6.55696 42.2073C3.80166 38.0422 2.32171 33.1616 2.32171 28.0529C2.32171 26.2265 2.51143 24.4292 2.88054 22.6833C2.93629 22.4192 3.30893 22.4023 3.38714 22.6606C3.921 24.4231 4.78989 26.2462 5.99056 28.0897C7.60675 30.5718 9.73813 32.9577 12.2638 35.1464C13.1259 35.8934 14.0365 36.616 14.9861 37.3131C16.9111 38.7256 19.0029 40.0293 21.2283 41.1855C22.2148 41.6982 23.1755 42.1874 24.1595 42.6304C24.7072 42.8769 25.3306 42.8961 25.8897 42.6766C26.3537 42.4949 26.8209 42.3059 27.2909 42.1094C27.8021 41.8962 28.0794 41.3389 27.9439 40.8018C27.927 40.7347 27.9136 40.6807 27.906 40.6489C27.1312 37.3882 26.7006 33.7176 26.6499 29.8729L26.6484 29.8737C26.6479 29.828 26.6481 29.7816 26.6476 29.7354C26.6453 29.5253 26.6466 29.3136 26.6428 29.1039C26.6415 29.0371 26.6436 28.9238 26.6443 28.8567C26.6448 28.8299 26.6443 28.8034 26.6443 28.777C26.6446 28.777 26.6451 28.7767 26.6453 28.7767C26.6466 28.536 26.6484 28.2956 26.6526 28.0541C26.6645 27.3946 26.6882 26.7399 26.7223 26.0905C26.7218 26.0908 26.7215 26.091 26.721 26.0913C26.9599 21.4519 27.7466 17.0925 28.9982 13.4254C29.114 13.0861 28.9331 12.7177 28.5938 12.6019C28.263 12.4889 27.9325 12.3809 27.6025 12.2775C27.2687 12.1728 26.912 12.3529 26.7992 12.6842C25.4426 16.6666 24.6055 21.3913 24.3823 26.391C24.3537 27.0253 24.0086 27.6025 23.4624 27.9262C20.5012 29.6812 17.7818 31.5416 15.4324 33.4169C14.9429 33.8077 14.2438 33.7928 13.7705 33.3823C11.4159 31.3408 9.43411 29.1234 7.936 26.8227C4.99198 22.3021 4.29237 18.0434 5.96659 14.8332C5.97113 14.8256 5.97517 14.8178 5.97946 14.8105C6.1929 14.4563 6.41492 14.1068 6.64602 13.7622C8.56976 11.2158 12.1503 9.74014 16.899 9.57338C17.1995 9.56278 17.502 9.55748 17.8072 9.55748C20.72 9.55748 23.8459 10.0381 27.025 10.9554L27.0258 10.9547C27.0954 10.9749 27.1651 10.9958 27.2347 11.0162C27.2884 11.0321 27.3422 11.047 27.3959 11.0632C27.3959 11.0629 27.3957 11.0634 27.3959 11.0632C28.1306 11.2827 28.8673 11.5261 29.605 11.7915C29.605 11.7918 29.6052 11.7913 29.605 11.7915C29.6221 11.7976 29.6395 11.8039 29.6567 11.81C29.849 11.8793 30.0409 11.9505 30.2329 12.0229C30.293 12.0456 30.3533 12.0686 30.4133 12.0918C30.4711 12.114 30.5289 12.1354 30.5869 12.1579L30.5862 12.1589C32.1388 12.7598 33.6901 13.4587 35.2221 14.2549C38.1873 15.7954 40.9014 17.6014 43.2634 19.5826C38.7557 20.6153 33.516 22.6074 28.2479 25.2933C28.0049 25.4174 27.845 25.6616 27.8296 25.9341C27.8112 26.2606 27.787 26.917 27.7696 27.4388C27.7587 27.7663 28.1051 27.9832 28.3952 27.8309L28.3983 27.8291C33.6142 25.0902 38.8198 23.0431 43.2901 21.9612C44.1257 21.7592 44.6667 20.9566 44.5493 20.1051C44.4671 19.5102 44.3745 18.9246 44.2721 18.3494C44.1434 17.6268 43.7478 16.9807 43.164 16.5362C41.0702 14.9412 38.7627 13.4781 36.2925 12.1945C34.6279 11.3296 32.9388 10.5717 31.2462 9.92533C30.8841 9.78707 30.729 9.35918 30.9179 9.02086C32.6618 5.90125 34.7359 4.15411 36.7565 4.15411C36.7774 4.15411 36.7984 4.15411 36.8193 4.15462C39.2027 4.19725 41.5793 6.67907 43.3393 10.9638C44.2302 13.1327 44.9205 15.634 45.3923 18.3522C45.3897 18.3499 45.3872 18.3479 45.3849 18.3456C45.5863 19.5057 45.7485 20.7046 45.8688 21.9345C45.8585 21.9411 45.8474 21.9469 45.837 21.9534C45.8512 21.9678 45.8661 21.9822 45.8804 21.9968C46.08 24.0606 46.1643 26.2096 46.1249 28.4026C46.1002 29.7897 46.0263 31.1576 45.9067 32.496C42.7179 35.0729 38.7754 37.6375 34.4417 39.9341C33.0175 40.689 31.5936 41.3916 30.1835 42.0385C30.1615 42.0486 30.1398 42.0584 30.1179 42.0685C30.0102 42.1177 29.9022 42.1677 29.7945 42.2164C29.7934 42.2161 29.7927 42.2159 29.7919 42.2156C28.6236 42.7442 27.4663 43.2331 26.3282 43.6797C26.3284 43.6799 26.3285 43.6804 26.3287 43.6807C26.2644 43.7059 26.2005 43.7301 26.1365 43.7551C26.0565 43.7864 25.9765 43.8172 25.8968 43.848C25.7058 43.9211 25.5156 43.9933 25.3258 44.0642C25.2736 44.0836 25.2211 44.104 25.1689 44.1232C24.9386 44.2087 24.7095 44.2918 24.4812 44.3735C24.4526 44.3836 24.4241 44.3944 24.3959 44.4045C24.3954 44.4043 24.3951 44.4043 24.3949 44.404C21.9559 45.2727 19.6326 45.9289 17.5153 46.3363C12.3991 47.3213 9.98992 46.5657 9.44118 45.5305ZM13.1158 7.09586C17.4462 3.99492 22.6207 2.3217 28.0529 2.3217C29.4867 2.3217 30.902 2.43902 32.2889 2.66785C32.6603 2.72916 32.7849 3.20322 32.4887 3.43558C31.1447 4.48916 29.8961 6.04808 28.7911 8.06971C28.5214 8.56294 27.9494 8.80414 27.4085 8.65175C23.7475 7.62113 20.1455 7.13622 16.8175 7.25304C15.5898 7.29618 14.4273 7.42056 13.3351 7.62189C13.0283 7.6784 12.8623 7.27726 13.1158 7.09586ZM48.4364 25.8488C48.4289 25.5539 48.8073 25.428 48.9784 25.6682C49.1885 25.9631 49.3911 26.2596 49.5851 26.5575C49.843 26.9536 50.0829 27.3475 50.3059 27.7388C50.4449 27.9827 50.4116 28.2888 50.2224 28.4962C49.9219 28.8262 49.596 29.1673 49.242 29.521C49.1128 29.6499 48.9811 29.7791 48.8469 29.9085C48.6804 30.0695 48.4011 29.9468 48.4102 29.7152C48.4266 29.2931 48.4387 28.8695 48.4463 28.4439C48.4619 27.572 48.4581 26.7064 48.4364 25.8488ZM45.7679 9.39072C45.9296 9.54411 46.0896 9.70003 46.2478 9.85822C48.7273 12.3378 50.6372 15.2351 51.9143 18.3905C52.0432 18.7087 51.773 19.0417 51.4352 18.9809C50.6962 18.8482 49.8647 18.7889 48.944 18.8043C48.306 18.8149 47.7515 18.3678 47.6394 17.7396C47.1391 14.9344 46.4158 12.3431 45.4869 10.0815C45.4339 9.95258 45.3804 9.82517 45.3262 9.69902C45.2081 9.42377 45.5507 9.18434 45.7679 9.39072ZM55.4999 22.2183C54.3913 16.9512 51.7846 12.1117 47.8892 8.21629C42.5908 2.91787 35.5462 9.91821e-05 28.0529 9.91821e-05C20.5598 9.91821e-05 13.515 2.91787 8.21655 8.21629C6.92783 9.50501 5.78166 10.8974 4.78233 12.3738C4.48512 12.7694 4.21895 13.1872 3.9823 13.6245C1.38645 17.9379 0.000101089 22.8889 0.000101089 28.0529C0.000101089 35.5462 2.91813 42.5908 8.21655 47.8892C13.515 53.1876 20.5598 56.1059 28.0529 56.1059C35.5462 56.1059 42.5908 53.1876 47.8892 47.8892C50.3899 45.3887 52.3596 42.499 53.7432 39.3569C53.9122 39.0087 54.0598 38.6522 54.1867 38.2887C55.4462 35.0704 56.1059 31.6125 56.1059 28.0529C56.1059 26.0936 55.9046 24.1658 55.5153 22.291C55.51 22.2668 55.5052 22.2426 55.4999 22.2183ZM212.637 30.6929H207.331C206.832 30.6929 206.521 30.1527 206.771 29.7208L209.432 25.1265C209.682 24.6951 210.305 24.6961 210.554 25.128L213.199 29.7226C213.447 30.1542 213.135 30.6929 212.637 30.6929ZM219.619 35.0591L211.249 20.5381C210.646 19.5973 209.343 19.5973 208.74 20.5381L200.37 35.0591C200.269 35.241 200.219 35.4229 200.205 35.6335C200.152 36.4535 200.789 37.1864 201.611 37.2053C202.184 37.2187 202.63 36.9298 202.975 36.3135L204.269 34.0635C204.439 33.7691 204.752 33.5874 205.092 33.5874H214.873C215.212 33.5874 215.526 33.7691 215.695 34.0635L216.989 36.3135C217.316 36.8973 217.757 37.1874 218.288 37.2048C219.101 37.2318 219.788 36.5713 219.788 35.7584C219.788 35.5415 219.739 35.3242 219.619 35.0591Z" fill="white"/>
</svg>
